PathFileType	4	(X/Y/Z)	55_2_58_p0_0-307.trc
DataRate	CameraRate	NumFrames	NumMarkers	Units	OrigDataRate	OrigDataStartFrame	OrigNumFrames
60.0	60.0	7	27	m	60.0	115	308
Frame#	Time	RHip			RKnee			RAnkle			RBigToe			RSmallToe			RHeel			LHip			LKnee			LAnkle			LBigToe			LSmallToe			LHeel			Neck			Head			Nose			RShoulder			RElbow			RWrist			RThumb			RIndex			RPinky			LShoulder			LElbow			LWrist			LThumb			LIndex			LPinky			
		X1	Y1	Z1	X2	Y2	Z2	X3	Y3	Z3	X4	Y4	Z4	X5	Y5	Z5	X6	Y6	Z6	X7	Y7	Z7	X8	Y8	Z8	X9	Y9	Z9	X10	Y10	Z10	X11	Y11	Z11	X12	Y12	Z12	X13	Y13	Z13	X14	Y14	Z14	X15	Y15	Z15	X16	Y16	Z16	X17	Y17	Z17	X18	Y18	Z18	X19	Y19	Z19	X20	Y20	Z20	X21	Y21	Z21	X22	Y22	Z22	X23	Y23	Z23	X24	Y24	Z24	X25	Y25	Z25	X26	Y26	Z26	X27	Y27	Z27	
115	1.9166666666666667	0.3206186956566369	0.5553373445111646	0.7842736893592845	0.32238434998810883	0.5754218671306627	1.1954802753392888	0.31606347166136883	0.6310645100821924	1.6251632255323383	0.29146537025543684	0.4328621597589727	1.6378113423427028	0.34918053276270267	0.46473620683918554	1.6612524573439724	0.30414588422375594	0.6834932059974795	1.6969781553325665	0.11382054926638034	0.5973952828598259	0.8068914099633906	0.1333352674419583	0.6114757282601745	1.2012276895948297	0.14794490873504948	0.6156060404634506	1.5904947555041216	0.12873222194123332	0.419205941099381	1.6146130425605882	0.08137364107124656	0.4673036614035287	1.6322432268583231	0.16568225682591686	0.6592904510691973	1.666083527494231	0.22287575357776793	0.5823686070627688	0.21627710508801756	0.22036346284074268	0.5572810228523671	-0.038983451730825014	0.19956738727552717	0.47096075217619987	0.07854840261407137	0.3619873922637997	0.5486389559138225	0.29428679764527815	0.3821406875798372	0.5183041463333886	0.5678565671910679	0.26944422128126366	0.4158495368771081	0.7470708563658597	0.20624021241115975	0.42695506834085534	0.8568494570156768	0.20325949566626772	0.4266311232002451	0.8671232595226429	0.20556859092445395	0.40197349896208895	0.8515396713890815	0.07240493184709937	0.5992425393512361	0.30663643600753554	0.04404304150058574	0.518311784417522	0.541697856413478	0.1484784517450865	0.41433711450807637	0.7317928637320301	0.22363074602063174	0.3993169072420382	0.8155610521376608	0.22916430741363625	0.40365254061411526	0.854645076567357	0.19791632138760915	0.4017476455072935	0.8418719801806515
116	1.9333333333333333	0.3206072296095203	0.5552476783549839	0.7841747015386736	0.3223615818718429	0.575359619434	1.1954807789733488	0.31736842234222257	0.630438965254151	1.6346985268213254	0.2913629422390269	0.43279301679581295	1.6374909457132287	0.34927148288917376	0.4648358572201807	1.6610388029781347	0.3039395428811181	0.6832779611098155	1.6967681008555808	0.11380987903661315	0.5973633584383019	0.8068063268831202	0.1325791099607866	0.6114637339506402	1.2052908345994755	0.14792657236348458	0.6155409516579018	1.5904971800829004	0.12878341591823883	0.41905359516719143	1.6145862126881063	0.0813491500095384	0.4671544504030623	1.6322042100479874	0.1656601514763522	0.6591716227075727	1.6663132028228702	0.2228601704113978	0.5824066281469208	0.21631036769050196	0.2203827566081615	0.5572444238170646	-0.03895484318173091	0.19572884869062135	0.4690778744535855	0.07847931362881554	0.36196312758735066	0.5486264897094906	0.2942863716909262	0.38211801464750567	0.5182122129848493	0.5678515414715367	0.27014180742084115	0.41683760325608493	0.7511879434812704	0.20296572708217833	0.42628665773944596	0.8565018968767686	0.20299797446310866	0.4266497037034287	0.8668714852608357	0.2055906583500255	0.40159830324985185	0.8515553797919941	0.07237800789197026	0.5993300085724622	0.3067205216729327	0.044034729156443755	0.5182865133089901	0.5416628433418699	0.1484930004805888	0.4141865138299434	0.7317445024448529	0.2272641653330164	0.4086328696333125	0.8192283622110964	0.2285938140699351	0.40367480488351026	0.8586711861021481	0.19863589626597203	0.4024877149364905	0.846243858633887
117	1.95	0.32060835540967075	0.5553732547650613	0.7843267892465351	0.32236976214740953	0.575380861863017	1.1954568315916556	0.3206245480113043	0.6138539632767235	1.6241383965486769	0.29164436087490553	0.4316775347589092	1.6400382110219043	0.3524924068236456	0.4495454123230224	1.6503619332996773	0.30403818605163047	0.6835237494186982	1.6970538373000956	0.11381023942694682	0.5974177581622788	0.8068972583843229	0.1325884954203948	0.6114878506258635	1.205202584905271	0.14795017942782848	0.615507975695178	1.590475776616799	0.1287579404187974	0.4188965929364141	1.6144197599687304	0.08136428014612662	0.46714105641752507	1.6321373477280163	0.1656648727676089	0.6589968310345335	1.6662957654375499	0.22286923832182245	0.582398666762772	0.21631169900013947	0.220389312963562	0.5572453082133962	-0.03894502124021699	0.19960131663178804	0.4710020104073272	0.0786102952614289	0.36197910990678994	0.5486349478444738	0.2942903464822052	0.38276417395457274	0.518789391594268	0.5715559743009553	0.27012428238174135	0.4166416767017222	0.7509927915675259	0.2030950672006989	0.42621543156063746	0.8566367803259188	0.20308038229460945	0.4264906414654749	0.8669312733331828	0.20560990133635035	0.40171591888259006	0.8515049686138825	0.07235845870683838	0.5993336682468656	0.30680073778668265	0.04365792156315286	0.517969165462593	0.5449456038015771	0.1485182974212872	0.4140451216710225	0.7316717531387656	0.22364346242864555	0.3995578499896441	0.8156879532152752	0.22854974330739308	0.4036318029748605	0.8586633772164681	0.19788322952480608	0.4017889766791739	0.8418640491360871
118	1.9666666666666666	0.32066168382945504	0.5552389357575879	0.7843028034551924	0.32339727397432444	0.576387909990631	1.2004472010579212	0.3123986453509788	0.6173983737313389	1.6263302759630591	0.29163444481814454	0.4318411220837725	1.6401236059208522	0.34944490363610725	0.46516135509215883	1.6608851854008462	0.29838431094610585	0.6691580157599951	1.687377526146668	0.11778429996020408	0.5837645953423813	0.8019931209722354	0.13256540871581712	0.6114160097228956	1.2052283758475766	0.14791597901958428	0.6153885623230969	1.590414311406877	0.12888562399280631	0.41866205885892904	1.6143039329594207	0.08141622747859031	0.46697180179249237	1.6320673341338936	0.16563198176037233	0.6589602404284339	1.6661024841268175	0.2228775292261636	0.5823637232782741	0.21630304776561626	0.22040585818104463	0.557258149560248	-0.03890869080444671	0.1996154336272193	0.47106445573292954	0.07864031852193663	0.36198265173152494	0.5486264770155463	0.29430916601858653	0.3827760045302561	0.5187950495056741	0.5715758859662111	0.27010393801130095	0.4168325193901668	0.7511096854345108	0.20294471789285862	0.4262941261604471	0.8565587719609855	0.20296211287206511	0.4264821355981347	0.8668217240426559	0.20557189367463802	0.4012080698297781	0.8514415151629754	0.07238009699949322	0.5993170716844107	0.3067617304842628	0.04364235334644952	0.5179498875387754	0.5449571297707808	0.1484456620584018	0.41391226110190416	0.7316519543499135	0.2265427148290349	0.4077182505305365	0.8153309211340408	0.2285195723778609	0.40350672265201554	0.8586179395085987	0.19862624507975454	0.40261941415849295	0.846427721644826
119	1.9833333333333334	0.3251575784444037	0.5672487362798404	0.788577231550568	0.3233669122483139	0.576368109287022	1.2004335629098073	0.31241264513726064	0.6174883133911157	1.6264713582814292	0.291527259685749	0.43170585068423606	1.6399155546574626	0.34438566438948154	0.453464338240506	1.6528755189999522	0.2984100820830697	0.6692183584976277	1.6874236178298125	0.11778362253653421	0.5838803243218564	0.8021767635680397	0.13257480950235734	0.6113971827497382	1.205226027466772	0.14794619584346505	0.6154958880154007	1.590497979179655	0.12869232058268287	0.4184447911503901	1.6141264589642155	0.08141547320728278	0.46702519950200516	1.632022772843827	0.16564565963008018	0.658997297814489	1.666363911537083	0.22285939870724814	0.5823647194724325	0.21632508260958916	0.2204150619247087	0.5572668235453268	-0.038909446590130264	0.19963084632880967	0.4711084246868103	0.07866109122613174	0.3619810332866049	0.5486495577849418	0.2943008739692616	0.3821341966715006	0.5182234790320497	0.5678281409424075	0.2701706732279705	0.4169797393639193	0.7512503807996653	0.20295069412618252	0.42650682203466067	0.8566772595808672	0.20294599387041706	0.42666512249966687	0.8669168694313849	0.20199687786677514	0.4000499751858417	0.8512770500474779	0.0726889791388537	0.5999603219546581	0.3101465195202119	0.0440489509937198	0.5182035430715956	0.5416160347907417	0.14845690621771826	0.41369174348475046	0.7315805108625059	0.226579445746608	0.40755650716046815	0.8152478348734297	0.2285373332795105	0.40341020494627905	0.8585808210870666	0.1979360158883471	0.4020011564368038	0.8420153287227774
120	2.0	0.3206165804097777	0.5550346739626957	0.7842308907864616	0.32252872707142	0.5738041884534106	1.198788270273857	0.3173936221590119	0.628716339299789	1.638665603817924	0.2915483451924433	0.43206753524618896	1.6394420027543368	0.35039363849830085	0.4645122065281131	1.6637852198461396	0.3036748361241909	0.6809539376104894	1.6994022958498112	0.117818645280442	0.5838461183974908	0.802272462967101	0.1325176252067769	0.6112488691294821	1.2051448760874643	0.1489355545363905	0.6152857227566801	1.5857635398715806	0.1256715928192119	0.40676160276627316	1.6023406791834431	0.08675594768388492	0.4670699184039322	1.627948652555769	0.16716663010127308	0.657404245961954	1.6641788673648747	0.22288146722988875	0.5823488441542147	0.21632219506901373	0.22044932297522435	0.5571356073641888	-0.038860402966855466	0.19965778494429823	0.47102604261669756	0.0786128973912601	0.36200155664621425	0.5487678829424314	0.29435271886470543	0.38255258606737125	0.5184444721565171	0.5716603718578027	0.2701774893092663	0.4168614490696348	0.751359340118169	0.20229401662715593	0.42700842121017724	0.8545935567200462	0.19918698562735782	0.4276149471169697	0.8648897229336665	0.2057403988311793	0.40142845984509773	0.8546586016351783	0.06859800538724771	0.5972042516493754	0.3095984341708737	0.04375255619670649	0.5178218995599576	0.5449776389107311	0.15133666157638725	0.401645371690276	0.7228999789909272	0.21867571845683292	0.39632835529161203	0.8145306616851526	0.22373373299569166	0.39298206103129335	0.8544434420238041	0.19775294115389597	0.4016358154360817	0.8416547036084578
121	2.0166666666666666	0.3205957586848816	0.5549881569810944	0.7841366570650405	0.32253123154206953	0.5737918687808845	1.1988434475560212	0.31710882487916636	0.6304245010742158	1.6347289713332316	0.2915744948874749	0.4320342913586276	1.6394278254274974	0.35038114308334367	0.46454077155432094	1.663745389277276	0.30373719283617867	0.6810786965792968	1.6995103171262373	0.11779802980747017	0.5837431796042554	0.8020141019170814	0.132504897618874	0.6112703795372869	1.2051855929050574	0.14895101647827094	0.6152603617081329	1.585724855478569	0.12566125006497814	0.4069148273741798	1.602463364753918	0.08704895711253095	0.4649567328264284	1.6315997909863047	0.1671629889647146	0.657363294552073	1.664256024520272	0.2228573284551543	0.5823496150859409	0.21634592550650322	0.2204632898483654	0.5571199258645786	-0.03877578598436835	0.1996361434345557	0.4709801950705858	0.07865379092592724	0.36198097736749163	0.5487030354504999	0.2943378720198149	0.38263352175810633	0.5185418134836294	0.5716521143488345	0.2704066058930797	0.4156864852958611	0.754985049423275	0.19903320498529015	0.42657403352231715	0.8542365945152782	0.19890835572372204	0.4276162920208102	0.8644458528395841	0.20191732227884512	0.4003776293782924	0.8542403932959857	0.06857804305678149	0.5972094640952509	0.3095739388662672	0.04366623214391409	0.517912746712508	0.54492729558308	0.1513674828288656	0.40183326898465993	0.7229824680681333	0.21845898586956097	0.39724010621843064	0.8115274363258985	0.22391299637289966	0.40153180091268054	0.8578887611417001	0.19789708036538028	0.4018535211438823	0.841891594389087
